<mxfile host="app.diagrams.net" modified="2023-11-09T15:41:04.497Z" agent="Mozilla/5.0 (Windows NT 10.0; Win64; x64) AppleWebKit/537.36 (KHTML, like Gecko) Chrome/119.0.0.0 Safari/537.36" etag="DbeQ_sbu0AM3RUpD3BKP" version="22.1.0" type="device" pages="2">
  <diagram name="Class diagram" id="DR_sr9mSw5OCdtNdc02W">
    <mxGraphModel dx="1518" dy="628" grid="1" gridSize="10" guides="1" tooltips="1" connect="1" arrows="1" fold="1" page="1" pageScale="1" pageWidth="827" pageHeight="1169" math="0" shadow="0">
      <root>
        <mxCell id="0" />
        <mxCell id="1" parent="0" />
        <mxCell id="hLs-pXl9jXcIarvX4DBT-1" value="Location" style="swimlane;fontStyle=1;align=center;verticalAlign=top;childLayout=stackLayout;horizontal=1;startSize=26;horizontalStack=0;resizeParent=1;resizeParentMax=0;resizeLast=0;collapsible=1;marginBottom=0;whiteSpace=wrap;html=1;" parent="1" vertex="1">
          <mxGeometry x="195" y="540" width="330" height="190" as="geometry" />
        </mxCell>
        <mxCell id="hLs-pXl9jXcIarvX4DBT-2" value="- _inventory: Inventory" style="text;strokeColor=none;fillColor=none;align=left;verticalAlign=top;spacingLeft=4;spacingRight=4;overflow=hidden;rotatable=0;points=[[0,0.5],[1,0.5]];portConstraint=eastwest;whiteSpace=wrap;html=1;" parent="hLs-pXl9jXcIarvX4DBT-1" vertex="1">
          <mxGeometry y="26" width="330" height="26" as="geometry" />
        </mxCell>
        <mxCell id="hLs-pXl9jXcIarvX4DBT-3" value="" style="line;strokeWidth=1;fillColor=none;align=left;verticalAlign=middle;spacingTop=-1;spacingLeft=3;spacingRight=3;rotatable=0;labelPosition=right;points=[];portConstraint=eastwest;strokeColor=inherit;" parent="hLs-pXl9jXcIarvX4DBT-1" vertex="1">
          <mxGeometry y="52" width="330" height="8" as="geometry" />
        </mxCell>
        <mxCell id="hLs-pXl9jXcIarvX4DBT-4" value="+ Location(string name, string desc)" style="text;strokeColor=none;fillColor=none;align=left;verticalAlign=top;spacingLeft=4;spacingRight=4;overflow=hidden;rotatable=0;points=[[0,0.5],[1,0.5]];portConstraint=eastwest;whiteSpace=wrap;html=1;" parent="hLs-pXl9jXcIarvX4DBT-1" vertex="1">
          <mxGeometry y="60" width="330" height="26" as="geometry" />
        </mxCell>
        <mxCell id="hLs-pXl9jXcIarvX4DBT-9" value="+ Locate(string id): GameObject" style="text;strokeColor=none;fillColor=none;align=left;verticalAlign=top;spacingLeft=4;spacingRight=4;overflow=hidden;rotatable=0;points=[[0,0.5],[1,0.5]];portConstraint=eastwest;whiteSpace=wrap;html=1;" parent="hLs-pXl9jXcIarvX4DBT-1" vertex="1">
          <mxGeometry y="86" width="330" height="26" as="geometry" />
        </mxCell>
        <mxCell id="hLs-pXl9jXcIarvX4DBT-13" value="+ FullDescription: string &amp;lt;&amp;lt;override, readonly, property&amp;gt;&amp;gt;" style="text;strokeColor=none;fillColor=none;align=left;verticalAlign=top;spacingLeft=4;spacingRight=4;overflow=hidden;rotatable=0;points=[[0,0.5],[1,0.5]];portConstraint=eastwest;whiteSpace=wrap;html=1;" parent="hLs-pXl9jXcIarvX4DBT-1" vertex="1">
          <mxGeometry y="112" width="330" height="26" as="geometry" />
        </mxCell>
        <mxCell id="hLs-pXl9jXcIarvX4DBT-11" value="+ Inventory: Inventory &amp;lt;&amp;lt;readonly, property&amp;gt;&amp;gt;" style="text;strokeColor=none;fillColor=none;align=left;verticalAlign=top;spacingLeft=4;spacingRight=4;overflow=hidden;rotatable=0;points=[[0,0.5],[1,0.5]];portConstraint=eastwest;whiteSpace=wrap;html=1;" parent="hLs-pXl9jXcIarvX4DBT-1" vertex="1">
          <mxGeometry y="138" width="330" height="26" as="geometry" />
        </mxCell>
        <mxCell id="vt_O2ebniHoKEB0Q5vbg-1" value="+ Location: Location &amp;lt;&amp;lt;readonly, property&amp;gt;&amp;gt;" style="text;strokeColor=none;fillColor=none;align=left;verticalAlign=top;spacingLeft=4;spacingRight=4;overflow=hidden;rotatable=0;points=[[0,0.5],[1,0.5]];portConstraint=eastwest;whiteSpace=wrap;html=1;" parent="hLs-pXl9jXcIarvX4DBT-1" vertex="1">
          <mxGeometry y="164" width="330" height="26" as="geometry" />
        </mxCell>
        <mxCell id="hLs-pXl9jXcIarvX4DBT-5" value="&lt;b&gt;GameObject&lt;br&gt;&amp;lt;&amp;lt;abstract&amp;gt;&amp;gt;&lt;br&gt;&lt;/b&gt;" style="html=1;whiteSpace=wrap;" parent="1" vertex="1">
          <mxGeometry x="305" y="426" width="110" height="50" as="geometry" />
        </mxCell>
        <mxCell id="hLs-pXl9jXcIarvX4DBT-6" value="" style="endArrow=block;endSize=16;endFill=0;html=1;rounded=0;exitX=0.5;exitY=0;exitDx=0;exitDy=0;entryX=0.5;entryY=1;entryDx=0;entryDy=0;" parent="1" source="hLs-pXl9jXcIarvX4DBT-1" target="hLs-pXl9jXcIarvX4DBT-5" edge="1">
          <mxGeometry width="160" relative="1" as="geometry">
            <mxPoint x="220" y="720" as="sourcePoint" />
            <mxPoint x="410" y="480" as="targetPoint" />
          </mxGeometry>
        </mxCell>
        <mxCell id="hLs-pXl9jXcIarvX4DBT-14" value="Player" style="swimlane;fontStyle=1;align=center;verticalAlign=top;childLayout=stackLayout;horizontal=1;startSize=26;horizontalStack=0;resizeParent=1;resizeParentMax=0;resizeLast=0;collapsible=1;marginBottom=0;whiteSpace=wrap;html=1;" parent="1" vertex="1">
          <mxGeometry x="595" y="706" width="330" height="242" as="geometry" />
        </mxCell>
        <mxCell id="hLs-pXl9jXcIarvX4DBT-15" value="- _inventory: Inventory" style="text;strokeColor=none;fillColor=none;align=left;verticalAlign=top;spacingLeft=4;spacingRight=4;overflow=hidden;rotatable=0;points=[[0,0.5],[1,0.5]];portConstraint=eastwest;whiteSpace=wrap;html=1;" parent="hLs-pXl9jXcIarvX4DBT-14" vertex="1">
          <mxGeometry y="26" width="330" height="26" as="geometry" />
        </mxCell>
        <mxCell id="hLs-pXl9jXcIarvX4DBT-28" value="- _location: Location" style="text;strokeColor=none;fillColor=none;align=left;verticalAlign=top;spacingLeft=4;spacingRight=4;overflow=hidden;rotatable=0;points=[[0,0.5],[1,0.5]];portConstraint=eastwest;whiteSpace=wrap;html=1;" parent="hLs-pXl9jXcIarvX4DBT-14" vertex="1">
          <mxGeometry y="52" width="330" height="26" as="geometry" />
        </mxCell>
        <mxCell id="hLs-pXl9jXcIarvX4DBT-16" value="" style="line;strokeWidth=1;fillColor=none;align=left;verticalAlign=middle;spacingTop=-1;spacingLeft=3;spacingRight=3;rotatable=0;labelPosition=right;points=[];portConstraint=eastwest;strokeColor=inherit;" parent="hLs-pXl9jXcIarvX4DBT-14" vertex="1">
          <mxGeometry y="78" width="330" height="8" as="geometry" />
        </mxCell>
        <mxCell id="hLs-pXl9jXcIarvX4DBT-17" value="+ Player(string name, desc)" style="text;strokeColor=none;fillColor=none;align=left;verticalAlign=top;spacingLeft=4;spacingRight=4;overflow=hidden;rotatable=0;points=[[0,0.5],[1,0.5]];portConstraint=eastwest;whiteSpace=wrap;html=1;" parent="hLs-pXl9jXcIarvX4DBT-14" vertex="1">
          <mxGeometry y="86" width="330" height="26" as="geometry" />
        </mxCell>
        <mxCell id="hLs-pXl9jXcIarvX4DBT-29" value="+ Locate(string id): GameObject" style="text;strokeColor=none;fillColor=none;align=left;verticalAlign=top;spacingLeft=4;spacingRight=4;overflow=hidden;rotatable=0;points=[[0,0.5],[1,0.5]];portConstraint=eastwest;whiteSpace=wrap;html=1;" parent="hLs-pXl9jXcIarvX4DBT-14" vertex="1">
          <mxGeometry y="112" width="330" height="26" as="geometry" />
        </mxCell>
        <mxCell id="vt_O2ebniHoKEB0Q5vbg-2" value="+ ChangeLocation(Location place): string" style="text;strokeColor=none;fillColor=none;align=left;verticalAlign=top;spacingLeft=4;spacingRight=4;overflow=hidden;rotatable=0;points=[[0,0.5],[1,0.5]];portConstraint=eastwest;whiteSpace=wrap;html=1;" parent="hLs-pXl9jXcIarvX4DBT-14" vertex="1">
          <mxGeometry y="138" width="330" height="26" as="geometry" />
        </mxCell>
        <mxCell id="hLs-pXl9jXcIarvX4DBT-30" value="+ FullDescription: string &amp;lt;&amp;lt;override, readonly, property&amp;gt;&amp;gt;" style="text;strokeColor=none;fillColor=none;align=left;verticalAlign=top;spacingLeft=4;spacingRight=4;overflow=hidden;rotatable=0;points=[[0,0.5],[1,0.5]];portConstraint=eastwest;whiteSpace=wrap;html=1;" parent="hLs-pXl9jXcIarvX4DBT-14" vertex="1">
          <mxGeometry y="164" width="330" height="26" as="geometry" />
        </mxCell>
        <mxCell id="hLs-pXl9jXcIarvX4DBT-31" value="+ Inventory: Inventory &amp;lt;&amp;lt;readonly, property&amp;gt;&amp;gt;" style="text;strokeColor=none;fillColor=none;align=left;verticalAlign=top;spacingLeft=4;spacingRight=4;overflow=hidden;rotatable=0;points=[[0,0.5],[1,0.5]];portConstraint=eastwest;whiteSpace=wrap;html=1;" parent="hLs-pXl9jXcIarvX4DBT-14" vertex="1">
          <mxGeometry y="190" width="330" height="26" as="geometry" />
        </mxCell>
        <mxCell id="vt_O2ebniHoKEB0Q5vbg-3" value="+ Location: Location &amp;lt;&amp;lt;readonly, property&amp;gt;&amp;gt;" style="text;strokeColor=none;fillColor=none;align=left;verticalAlign=top;spacingLeft=4;spacingRight=4;overflow=hidden;rotatable=0;points=[[0,0.5],[1,0.5]];portConstraint=eastwest;whiteSpace=wrap;html=1;" parent="hLs-pXl9jXcIarvX4DBT-14" vertex="1">
          <mxGeometry y="216" width="330" height="26" as="geometry" />
        </mxCell>
        <mxCell id="hLs-pXl9jXcIarvX4DBT-22" value="&lt;b&gt;IHaveInventory&lt;/b&gt;" style="swimlane;fontStyle=0;childLayout=stackLayout;horizontal=1;startSize=26;fillColor=none;horizontalStack=0;resizeParent=1;resizeParentMax=0;resizeLast=0;collapsible=1;marginBottom=0;whiteSpace=wrap;html=1;" parent="1" vertex="1">
          <mxGeometry x="245" y="811" width="230" height="104" as="geometry" />
        </mxCell>
        <mxCell id="hLs-pXl9jXcIarvX4DBT-23" value="+ Locate(string id): GameObject" style="text;strokeColor=none;fillColor=none;align=left;verticalAlign=top;spacingLeft=4;spacingRight=4;overflow=hidden;rotatable=0;points=[[0,0.5],[1,0.5]];portConstraint=eastwest;whiteSpace=wrap;html=1;" parent="hLs-pXl9jXcIarvX4DBT-22" vertex="1">
          <mxGeometry y="26" width="230" height="26" as="geometry" />
        </mxCell>
        <mxCell id="hLs-pXl9jXcIarvX4DBT-24" value="+ Name: string &amp;lt;&amp;lt;readonly, property&amp;gt;&amp;gt;" style="text;strokeColor=none;fillColor=none;align=left;verticalAlign=top;spacingLeft=4;spacingRight=4;overflow=hidden;rotatable=0;points=[[0,0.5],[1,0.5]];portConstraint=eastwest;whiteSpace=wrap;html=1;" parent="hLs-pXl9jXcIarvX4DBT-22" vertex="1">
          <mxGeometry y="52" width="230" height="26" as="geometry" />
        </mxCell>
        <mxCell id="hLs-pXl9jXcIarvX4DBT-25" value="+ field: type" style="text;strokeColor=none;fillColor=none;align=left;verticalAlign=top;spacingLeft=4;spacingRight=4;overflow=hidden;rotatable=0;points=[[0,0.5],[1,0.5]];portConstraint=eastwest;whiteSpace=wrap;html=1;" parent="hLs-pXl9jXcIarvX4DBT-22" vertex="1">
          <mxGeometry y="78" width="230" height="26" as="geometry" />
        </mxCell>
        <mxCell id="hLs-pXl9jXcIarvX4DBT-26" value="&lt;b&gt;IdentifiableObjects&lt;/b&gt;" style="html=1;whiteSpace=wrap;" parent="1" vertex="1">
          <mxGeometry x="297" y="311" width="126" height="50" as="geometry" />
        </mxCell>
        <mxCell id="hLs-pXl9jXcIarvX4DBT-27" value="" style="endArrow=block;endSize=16;endFill=0;html=1;rounded=0;exitX=0.5;exitY=0;exitDx=0;exitDy=0;entryX=0.5;entryY=1;entryDx=0;entryDy=0;" parent="1" source="hLs-pXl9jXcIarvX4DBT-5" target="hLs-pXl9jXcIarvX4DBT-26" edge="1">
          <mxGeometry width="160" relative="1" as="geometry">
            <mxPoint x="460" y="400" as="sourcePoint" />
            <mxPoint x="460" y="300" as="targetPoint" />
          </mxGeometry>
        </mxCell>
        <mxCell id="hLs-pXl9jXcIarvX4DBT-32" value="Inventory" style="swimlane;fontStyle=1;align=center;verticalAlign=top;childLayout=stackLayout;horizontal=1;startSize=26;horizontalStack=0;resizeParent=1;resizeParentMax=0;resizeLast=0;collapsible=1;marginBottom=0;whiteSpace=wrap;html=1;" parent="1" vertex="1">
          <mxGeometry x="810" y="348" width="230" height="216" as="geometry" />
        </mxCell>
        <mxCell id="hLs-pXl9jXcIarvX4DBT-33" value="- _items: List&amp;lt;Item&amp;gt;" style="text;strokeColor=none;fillColor=none;align=left;verticalAlign=top;spacingLeft=4;spacingRight=4;overflow=hidden;rotatable=0;points=[[0,0.5],[1,0.5]];portConstraint=eastwest;whiteSpace=wrap;html=1;" parent="hLs-pXl9jXcIarvX4DBT-32" vertex="1">
          <mxGeometry y="26" width="230" height="26" as="geometry" />
        </mxCell>
        <mxCell id="hLs-pXl9jXcIarvX4DBT-34" value="" style="line;strokeWidth=1;fillColor=none;align=left;verticalAlign=middle;spacingTop=-1;spacingLeft=3;spacingRight=3;rotatable=0;labelPosition=right;points=[];portConstraint=eastwest;strokeColor=inherit;" parent="hLs-pXl9jXcIarvX4DBT-32" vertex="1">
          <mxGeometry y="52" width="230" height="8" as="geometry" />
        </mxCell>
        <mxCell id="hLs-pXl9jXcIarvX4DBT-35" value="+ Inventory()" style="text;strokeColor=none;fillColor=none;align=left;verticalAlign=top;spacingLeft=4;spacingRight=4;overflow=hidden;rotatable=0;points=[[0,0.5],[1,0.5]];portConstraint=eastwest;whiteSpace=wrap;html=1;" parent="hLs-pXl9jXcIarvX4DBT-32" vertex="1">
          <mxGeometry y="60" width="230" height="26" as="geometry" />
        </mxCell>
        <mxCell id="hLs-pXl9jXcIarvX4DBT-36" value="+ HasItem(string id): bool" style="text;strokeColor=none;fillColor=none;align=left;verticalAlign=top;spacingLeft=4;spacingRight=4;overflow=hidden;rotatable=0;points=[[0,0.5],[1,0.5]];portConstraint=eastwest;whiteSpace=wrap;html=1;" parent="hLs-pXl9jXcIarvX4DBT-32" vertex="1">
          <mxGeometry y="86" width="230" height="26" as="geometry" />
        </mxCell>
        <mxCell id="hLs-pXl9jXcIarvX4DBT-37" value="+ Put(Item itm): void" style="text;strokeColor=none;fillColor=none;align=left;verticalAlign=top;spacingLeft=4;spacingRight=4;overflow=hidden;rotatable=0;points=[[0,0.5],[1,0.5]];portConstraint=eastwest;whiteSpace=wrap;html=1;" parent="hLs-pXl9jXcIarvX4DBT-32" vertex="1">
          <mxGeometry y="112" width="230" height="26" as="geometry" />
        </mxCell>
        <mxCell id="hLs-pXl9jXcIarvX4DBT-38" value="+ Take(string id): Item" style="text;strokeColor=none;fillColor=none;align=left;verticalAlign=top;spacingLeft=4;spacingRight=4;overflow=hidden;rotatable=0;points=[[0,0.5],[1,0.5]];portConstraint=eastwest;whiteSpace=wrap;html=1;" parent="hLs-pXl9jXcIarvX4DBT-32" vertex="1">
          <mxGeometry y="138" width="230" height="26" as="geometry" />
        </mxCell>
        <mxCell id="hLs-pXl9jXcIarvX4DBT-39" value="+ Fetch(string id): Item" style="text;strokeColor=none;fillColor=none;align=left;verticalAlign=top;spacingLeft=4;spacingRight=4;overflow=hidden;rotatable=0;points=[[0,0.5],[1,0.5]];portConstraint=eastwest;whiteSpace=wrap;html=1;" parent="hLs-pXl9jXcIarvX4DBT-32" vertex="1">
          <mxGeometry y="164" width="230" height="26" as="geometry" />
        </mxCell>
        <mxCell id="hLs-pXl9jXcIarvX4DBT-40" value="+ ItemList: string &amp;lt;&amp;lt;readonly, property&amp;gt;&amp;gt;" style="text;strokeColor=none;fillColor=none;align=left;verticalAlign=top;spacingLeft=4;spacingRight=4;overflow=hidden;rotatable=0;points=[[0,0.5],[1,0.5]];portConstraint=eastwest;whiteSpace=wrap;html=1;" parent="hLs-pXl9jXcIarvX4DBT-32" vertex="1">
          <mxGeometry y="190" width="230" height="26" as="geometry" />
        </mxCell>
        <mxCell id="hLs-pXl9jXcIarvX4DBT-41" value="Item" style="swimlane;fontStyle=1;align=center;verticalAlign=top;childLayout=stackLayout;horizontal=1;startSize=26;horizontalStack=0;resizeParent=1;resizeParentMax=0;resizeLast=0;collapsible=1;marginBottom=0;whiteSpace=wrap;html=1;" parent="1" vertex="1">
          <mxGeometry x="470" y="340" width="260" height="60" as="geometry" />
        </mxCell>
        <mxCell id="hLs-pXl9jXcIarvX4DBT-43" value="" style="line;strokeWidth=1;fillColor=none;align=left;verticalAlign=middle;spacingTop=-1;spacingLeft=3;spacingRight=3;rotatable=0;labelPosition=right;points=[];portConstraint=eastwest;strokeColor=inherit;" parent="hLs-pXl9jXcIarvX4DBT-41" vertex="1">
          <mxGeometry y="26" width="260" height="8" as="geometry" />
        </mxCell>
        <mxCell id="hLs-pXl9jXcIarvX4DBT-44" value="+ Item(string[] idents, string name, string desc)" style="text;strokeColor=none;fillColor=none;align=left;verticalAlign=top;spacingLeft=4;spacingRight=4;overflow=hidden;rotatable=0;points=[[0,0.5],[1,0.5]];portConstraint=eastwest;whiteSpace=wrap;html=1;" parent="hLs-pXl9jXcIarvX4DBT-41" vertex="1">
          <mxGeometry y="34" width="260" height="26" as="geometry" />
        </mxCell>
        <mxCell id="hLs-pXl9jXcIarvX4DBT-45" value="" style="endArrow=block;endSize=16;endFill=0;html=1;rounded=0;exitX=0;exitY=0.5;exitDx=0;exitDy=0;entryX=1;entryY=0.5;entryDx=0;entryDy=0;" parent="1" source="hLs-pXl9jXcIarvX4DBT-44" target="hLs-pXl9jXcIarvX4DBT-5" edge="1">
          <mxGeometry width="160" relative="1" as="geometry">
            <mxPoint x="470" y="304" as="sourcePoint" />
            <mxPoint x="470" y="240" as="targetPoint" />
            <Array as="points">
              <mxPoint x="450" y="387" />
              <mxPoint x="450" y="450" />
            </Array>
          </mxGeometry>
        </mxCell>
        <mxCell id="hLs-pXl9jXcIarvX4DBT-47" value="" style="endArrow=diamondThin;endFill=0;endSize=24;html=1;rounded=0;exitX=1;exitY=0.5;exitDx=0;exitDy=0;entryX=0;entryY=0.5;entryDx=0;entryDy=0;" parent="1" source="hLs-pXl9jXcIarvX4DBT-44" target="hLs-pXl9jXcIarvX4DBT-33" edge="1">
          <mxGeometry width="160" relative="1" as="geometry">
            <mxPoint x="600" y="470" as="sourcePoint" />
            <mxPoint x="760" y="470" as="targetPoint" />
          </mxGeometry>
        </mxCell>
        <mxCell id="hLs-pXl9jXcIarvX4DBT-48" value="&lt;font style=&quot;font-size: 18px;&quot;&gt;*&lt;/font&gt;" style="edgeLabel;html=1;align=center;verticalAlign=middle;resizable=0;points=[];rotation=0;" parent="hLs-pXl9jXcIarvX4DBT-47" vertex="1" connectable="0">
          <mxGeometry x="-0.5083" y="2" relative="1" as="geometry">
            <mxPoint x="-7" y="-3" as="offset" />
          </mxGeometry>
        </mxCell>
        <mxCell id="hLs-pXl9jXcIarvX4DBT-49" value="" style="endArrow=open;endFill=1;endSize=12;html=1;rounded=0;entryX=0;entryY=0.5;entryDx=0;entryDy=0;exitX=1;exitY=0.5;exitDx=0;exitDy=0;" parent="1" source="hLs-pXl9jXcIarvX4DBT-2" target="hLs-pXl9jXcIarvX4DBT-35" edge="1">
          <mxGeometry width="160" relative="1" as="geometry">
            <mxPoint x="530" y="580" as="sourcePoint" />
            <mxPoint x="640" y="470" as="targetPoint" />
            <Array as="points">
              <mxPoint x="600" y="580" />
              <mxPoint x="600" y="421" />
            </Array>
          </mxGeometry>
        </mxCell>
        <mxCell id="hLs-pXl9jXcIarvX4DBT-50" value="" style="endArrow=open;endFill=1;endSize=12;html=1;rounded=0;exitX=0.5;exitY=0;exitDx=0;exitDy=0;entryX=0.511;entryY=0.974;entryDx=0;entryDy=0;entryPerimeter=0;" parent="1" source="hLs-pXl9jXcIarvX4DBT-14" target="hLs-pXl9jXcIarvX4DBT-40" edge="1">
          <mxGeometry width="160" relative="1" as="geometry">
            <mxPoint x="620" y="660" as="sourcePoint" />
            <mxPoint x="780" y="660" as="targetPoint" />
            <Array as="points">
              <mxPoint x="760" y="680" />
              <mxPoint x="928" y="680" />
            </Array>
          </mxGeometry>
        </mxCell>
        <mxCell id="hLs-pXl9jXcIarvX4DBT-51" value="Use" style="endArrow=open;endSize=12;dashed=1;html=1;rounded=0;exitX=0.493;exitY=0.987;exitDx=0;exitDy=0;exitPerimeter=0;entryX=0.5;entryY=0;entryDx=0;entryDy=0;" parent="1" source="vt_O2ebniHoKEB0Q5vbg-1" target="hLs-pXl9jXcIarvX4DBT-22" edge="1">
          <mxGeometry width="160" relative="1" as="geometry">
            <mxPoint x="220" y="790" as="sourcePoint" />
            <mxPoint x="280" y="750" as="targetPoint" />
          </mxGeometry>
        </mxCell>
        <mxCell id="hLs-pXl9jXcIarvX4DBT-52" value="Use" style="endArrow=open;endSize=12;dashed=1;html=1;rounded=0;exitX=0;exitY=0.5;exitDx=0;exitDy=0;entryX=1.001;entryY=0.792;entryDx=0;entryDy=0;entryPerimeter=0;" parent="1" source="vt_O2ebniHoKEB0Q5vbg-2" target="hLs-pXl9jXcIarvX4DBT-23" edge="1">
          <mxGeometry width="160" relative="1" as="geometry">
            <mxPoint x="554" y="680" as="sourcePoint" />
            <mxPoint x="470" y="857" as="targetPoint" />
          </mxGeometry>
        </mxCell>
        <mxCell id="vt_O2ebniHoKEB0Q5vbg-5" value="" style="endArrow=open;endFill=1;endSize=12;html=1;rounded=0;exitX=0.5;exitY=0;exitDx=0;exitDy=0;entryX=1;entryY=0.5;entryDx=0;entryDy=0;" parent="1" source="hLs-pXl9jXcIarvX4DBT-14" edge="1">
          <mxGeometry width="160" relative="1" as="geometry">
            <mxPoint x="770" y="760" as="sourcePoint" />
            <mxPoint x="525" y="638.9999999999998" as="targetPoint" />
            <Array as="points">
              <mxPoint x="760" y="640" />
            </Array>
          </mxGeometry>
        </mxCell>
      </root>
    </mxGraphModel>
  </diagram>
  <diagram id="clqTjQ10jBK7a-zFWq9X" name="Sequence diagram">
    <mxGraphModel dx="2345" dy="628" grid="1" gridSize="10" guides="1" tooltips="1" connect="1" arrows="1" fold="1" page="1" pageScale="1" pageWidth="827" pageHeight="1169" math="0" shadow="0">
      <root>
        <mxCell id="0" />
        <mxCell id="1" parent="0" />
        <mxCell id="AKKE08FFjBf_-YG7INTh-5" value=":LookCommand" style="shape=umlLifeline;perimeter=lifelinePerimeter;whiteSpace=wrap;html=1;container=1;dropTarget=0;collapsible=0;recursiveResize=0;outlineConnect=0;portConstraint=eastwest;newEdgeStyle={&quot;curved&quot;:0,&quot;rounded&quot;:0};" parent="1" vertex="1">
          <mxGeometry x="521" y="630" width="110" height="200" as="geometry" />
        </mxCell>
        <mxCell id="AKKE08FFjBf_-YG7INTh-7" value="" style="html=1;points=[[0,0,0,0,5],[0,1,0,0,-5],[1,0,0,0,5],[1,1,0,0,-5]];perimeter=orthogonalPerimeter;outlineConnect=0;targetShapes=umlLifeline;portConstraint=eastwest;newEdgeStyle={&quot;curved&quot;:0,&quot;rounded&quot;:0};" parent="AKKE08FFjBf_-YG7INTh-5" vertex="1">
          <mxGeometry x="50" y="50" width="10" height="110" as="geometry" />
        </mxCell>
        <mxCell id="AKKE08FFjBf_-YG7INTh-11" value="" style="html=1;points=[[0,0,0,0,5],[0,1,0,0,-5],[1,0,0,0,5],[1,1,0,0,-5]];perimeter=orthogonalPerimeter;outlineConnect=0;targetShapes=umlLifeline;portConstraint=eastwest;newEdgeStyle={&quot;curved&quot;:0,&quot;rounded&quot;:0};" parent="AKKE08FFjBf_-YG7INTh-5" vertex="1">
          <mxGeometry x="56" y="59" width="10" height="51" as="geometry" />
        </mxCell>
        <mxCell id="AKKE08FFjBf_-YG7INTh-14" value="return &quot;...&quot;" style="html=1;verticalAlign=bottom;endArrow=open;dashed=1;endSize=8;curved=0;rounded=0;exitX=1;exitY=1;exitDx=0;exitDy=-5;exitPerimeter=0;entryX=1;entryY=1;entryDx=0;entryDy=-5;entryPerimeter=0;" parent="AKKE08FFjBf_-YG7INTh-5" source="AKKE08FFjBf_-YG7INTh-11" target="AKKE08FFjBf_-YG7INTh-7" edge="1">
          <mxGeometry relative="1" as="geometry">
            <mxPoint x="137" y="230" as="sourcePoint" />
            <mxPoint x="-51" y="230" as="targetPoint" />
            <Array as="points">
              <mxPoint x="99" y="130" />
            </Array>
          </mxGeometry>
        </mxCell>
        <mxCell id="AKKE08FFjBf_-YG7INTh-6" value="Execute(p, [&quot;Look&quot;])" style="html=1;verticalAlign=bottom;endArrow=block;curved=0;rounded=0;" parent="1" target="AKKE08FFjBf_-YG7INTh-7" edge="1">
          <mxGeometry x="-0.4265" width="80" relative="1" as="geometry">
            <mxPoint x="450" y="690" as="sourcePoint" />
            <mxPoint x="570" y="690" as="targetPoint" />
            <mxPoint as="offset" />
          </mxGeometry>
        </mxCell>
        <mxCell id="AKKE08FFjBf_-YG7INTh-8" value=":Location" style="shape=umlLifeline;perimeter=lifelinePerimeter;whiteSpace=wrap;html=1;container=1;dropTarget=0;collapsible=0;recursiveResize=0;outlineConnect=0;portConstraint=eastwest;newEdgeStyle={&quot;curved&quot;:0,&quot;rounded&quot;:0};" parent="1" vertex="1">
          <mxGeometry x="691" y="630" width="100" height="200" as="geometry" />
        </mxCell>
        <mxCell id="AKKE08FFjBf_-YG7INTh-9" value="" style="html=1;points=[[0,0,0,0,5],[0,1,0,0,-5],[1,0,0,0,5],[1,1,0,0,-5]];perimeter=orthogonalPerimeter;outlineConnect=0;targetShapes=umlLifeline;portConstraint=eastwest;newEdgeStyle={&quot;curved&quot;:0,&quot;rounded&quot;:0};" parent="AKKE08FFjBf_-YG7INTh-8" vertex="1">
          <mxGeometry x="45" y="61" width="10" height="41" as="geometry" />
        </mxCell>
        <mxCell id="AKKE08FFjBf_-YG7INTh-10" value="FullDescription" style="html=1;verticalAlign=bottom;endArrow=block;curved=0;rounded=0;entryX=0;entryY=0;entryDx=0;entryDy=5;entryPerimeter=0;" parent="1" source="AKKE08FFjBf_-YG7INTh-11" target="AKKE08FFjBf_-YG7INTh-9" edge="1">
          <mxGeometry width="80" relative="1" as="geometry">
            <mxPoint x="590" y="697" as="sourcePoint" />
            <mxPoint x="779.5" y="697" as="targetPoint" />
          </mxGeometry>
        </mxCell>
        <mxCell id="AKKE08FFjBf_-YG7INTh-13" value="return &quot;...&quot;" style="html=1;verticalAlign=bottom;endArrow=open;dashed=1;endSize=8;curved=0;rounded=0;exitX=0;exitY=1;exitDx=0;exitDy=-5;exitPerimeter=0;" parent="1" source="AKKE08FFjBf_-YG7INTh-9" target="AKKE08FFjBf_-YG7INTh-11" edge="1">
          <mxGeometry relative="1" as="geometry">
            <mxPoint x="700" y="730" as="sourcePoint" />
            <mxPoint x="590" y="730" as="targetPoint" />
          </mxGeometry>
        </mxCell>
        <mxCell id="AKKE08FFjBf_-YG7INTh-15" value="return &quot;...&quot;" style="html=1;verticalAlign=bottom;endArrow=open;dashed=1;endSize=8;curved=0;rounded=0;exitX=0;exitY=1;exitDx=0;exitDy=-5;exitPerimeter=0;" parent="1" source="AKKE08FFjBf_-YG7INTh-7" edge="1">
          <mxGeometry relative="1" as="geometry">
            <mxPoint x="560" y="790" as="sourcePoint" />
            <mxPoint x="440" y="785" as="targetPoint" />
          </mxGeometry>
        </mxCell>
        <mxCell id="AKKE08FFjBf_-YG7INTh-16" value=":LookCommand" style="shape=umlLifeline;perimeter=lifelinePerimeter;whiteSpace=wrap;html=1;container=1;dropTarget=0;collapsible=0;recursiveResize=0;outlineConnect=0;portConstraint=eastwest;newEdgeStyle={&quot;curved&quot;:0,&quot;rounded&quot;:0};" parent="1" vertex="1">
          <mxGeometry x="81" y="300" width="100" height="290" as="geometry" />
        </mxCell>
        <mxCell id="AKKE08FFjBf_-YG7INTh-20" value="" style="html=1;points=[[0,0,0,0,5],[0,1,0,0,-5],[1,0,0,0,5],[1,1,0,0,-5]];perimeter=orthogonalPerimeter;outlineConnect=0;targetShapes=umlLifeline;portConstraint=eastwest;newEdgeStyle={&quot;curved&quot;:0,&quot;rounded&quot;:0};" parent="AKKE08FFjBf_-YG7INTh-16" vertex="1">
          <mxGeometry x="45" y="60" width="10" height="210" as="geometry" />
        </mxCell>
        <mxCell id="AKKE08FFjBf_-YG7INTh-22" value="" style="html=1;points=[[0,0,0,0,5],[0,1,0,0,-5],[1,0,0,0,5],[1,1,0,0,-5]];perimeter=orthogonalPerimeter;outlineConnect=0;targetShapes=umlLifeline;portConstraint=eastwest;newEdgeStyle={&quot;curved&quot;:0,&quot;rounded&quot;:0};" parent="AKKE08FFjBf_-YG7INTh-16" vertex="1">
          <mxGeometry x="53" y="81" width="10" height="170" as="geometry" />
        </mxCell>
        <mxCell id="AKKE08FFjBf_-YG7INTh-25" value="LookAtIn&lt;br&gt;(p,&quot;gem&quot;,&quot;garden&quot;)" style="html=1;verticalAlign=bottom;endArrow=block;curved=0;rounded=0;exitX=1;exitY=0;exitDx=0;exitDy=5;exitPerimeter=0;entryX=1;entryY=0;entryDx=0;entryDy=5;entryPerimeter=0;" parent="AKKE08FFjBf_-YG7INTh-16" source="AKKE08FFjBf_-YG7INTh-20" target="AKKE08FFjBf_-YG7INTh-22" edge="1">
          <mxGeometry x="0.0591" y="32" width="80" relative="1" as="geometry">
            <mxPoint x="79" y="60" as="sourcePoint" />
            <mxPoint x="159" y="60" as="targetPoint" />
            <Array as="points">
              <mxPoint x="89" y="70" />
            </Array>
            <mxPoint x="13" y="-17" as="offset" />
          </mxGeometry>
        </mxCell>
        <mxCell id="AKKE08FFjBf_-YG7INTh-34" value="return &quot;...&quot;" style="html=1;verticalAlign=bottom;endArrow=open;dashed=1;endSize=8;curved=0;rounded=0;exitX=1;exitY=1;exitDx=0;exitDy=-5;exitPerimeter=0;entryX=1;entryY=1;entryDx=0;entryDy=-5;entryPerimeter=0;" parent="AKKE08FFjBf_-YG7INTh-16" source="AKKE08FFjBf_-YG7INTh-22" target="AKKE08FFjBf_-YG7INTh-20" edge="1">
          <mxGeometry x="-0.0511" y="5" relative="1" as="geometry">
            <mxPoint x="442" y="242" as="sourcePoint" />
            <mxPoint x="73" y="242" as="targetPoint" />
            <Array as="points">
              <mxPoint x="109" y="260" />
            </Array>
            <mxPoint as="offset" />
          </mxGeometry>
        </mxCell>
        <mxCell id="AKKE08FFjBf_-YG7INTh-17" value="p:Player" style="shape=umlLifeline;perimeter=lifelinePerimeter;whiteSpace=wrap;html=1;container=1;dropTarget=0;collapsible=0;recursiveResize=0;outlineConnect=0;portConstraint=eastwest;newEdgeStyle={&quot;curved&quot;:0,&quot;rounded&quot;:0};" parent="1" vertex="1">
          <mxGeometry x="222" y="300" width="100" height="290" as="geometry" />
        </mxCell>
        <mxCell id="AKKE08FFjBf_-YG7INTh-24" value="" style="html=1;points=[[0,0,0,0,5],[0,1,0,0,-5],[1,0,0,0,5],[1,1,0,0,-5]];perimeter=orthogonalPerimeter;outlineConnect=0;targetShapes=umlLifeline;portConstraint=eastwest;newEdgeStyle={&quot;curved&quot;:0,&quot;rounded&quot;:0};" parent="AKKE08FFjBf_-YG7INTh-17" vertex="1">
          <mxGeometry x="45" y="105" width="10" height="35" as="geometry" />
        </mxCell>
        <mxCell id="AKKE08FFjBf_-YG7INTh-18" value=":Location" style="shape=umlLifeline;perimeter=lifelinePerimeter;whiteSpace=wrap;html=1;container=1;dropTarget=0;collapsible=0;recursiveResize=0;outlineConnect=0;portConstraint=eastwest;newEdgeStyle={&quot;curved&quot;:0,&quot;rounded&quot;:0};" parent="1" vertex="1">
          <mxGeometry x="352" y="300" width="100" height="290" as="geometry" />
        </mxCell>
        <mxCell id="AKKE08FFjBf_-YG7INTh-28" value="" style="html=1;points=[[0,0,0,0,5],[0,1,0,0,-5],[1,0,0,0,5],[1,1,0,0,-5]];perimeter=orthogonalPerimeter;outlineConnect=0;targetShapes=umlLifeline;portConstraint=eastwest;newEdgeStyle={&quot;curved&quot;:0,&quot;rounded&quot;:0};" parent="AKKE08FFjBf_-YG7INTh-18" vertex="1">
          <mxGeometry x="45" y="149" width="10" height="40" as="geometry" />
        </mxCell>
        <mxCell id="AKKE08FFjBf_-YG7INTh-19" value=":Item" style="shape=umlLifeline;perimeter=lifelinePerimeter;whiteSpace=wrap;html=1;container=1;dropTarget=0;collapsible=0;recursiveResize=0;outlineConnect=0;portConstraint=eastwest;newEdgeStyle={&quot;curved&quot;:0,&quot;rounded&quot;:0};" parent="1" vertex="1">
          <mxGeometry x="468" y="300" width="100" height="290" as="geometry" />
        </mxCell>
        <mxCell id="AKKE08FFjBf_-YG7INTh-31" value="" style="html=1;points=[[0,0,0,0,5],[0,1,0,0,-5],[1,0,0,0,5],[1,1,0,0,-5]];perimeter=orthogonalPerimeter;outlineConnect=0;targetShapes=umlLifeline;portConstraint=eastwest;newEdgeStyle={&quot;curved&quot;:0,&quot;rounded&quot;:0};" parent="AKKE08FFjBf_-YG7INTh-19" vertex="1">
          <mxGeometry x="45" y="200" width="10" height="40" as="geometry" />
        </mxCell>
        <mxCell id="AKKE08FFjBf_-YG7INTh-21" value="Execute&lt;br&gt;(p, [&quot;look&quot;,&quot;at&quot;, &lt;br&gt;&quot;gem&quot;])" style="html=1;verticalAlign=bottom;endArrow=block;curved=0;rounded=0;entryX=0;entryY=0;entryDx=0;entryDy=5;entryPerimeter=0;" parent="1" target="AKKE08FFjBf_-YG7INTh-20" edge="1">
          <mxGeometry x="-0.7059" width="80" relative="1" as="geometry">
            <mxPoint x="-10" y="365" as="sourcePoint" />
            <mxPoint x="70" y="370" as="targetPoint" />
            <mxPoint as="offset" />
          </mxGeometry>
        </mxCell>
        <mxCell id="AKKE08FFjBf_-YG7INTh-26" value="Locate(&quot;garden&quot;)" style="html=1;verticalAlign=bottom;endArrow=block;curved=0;rounded=0;entryX=0;entryY=0;entryDx=0;entryDy=5;entryPerimeter=0;" parent="1" source="AKKE08FFjBf_-YG7INTh-22" target="AKKE08FFjBf_-YG7INTh-24" edge="1">
          <mxGeometry width="80" relative="1" as="geometry">
            <mxPoint x="170" y="410" as="sourcePoint" />
            <mxPoint x="250" y="410" as="targetPoint" />
          </mxGeometry>
        </mxCell>
        <mxCell id="AKKE08FFjBf_-YG7INTh-27" value="return &quot;garden&quot;" style="html=1;verticalAlign=bottom;endArrow=open;dashed=1;endSize=8;curved=0;rounded=0;exitX=0;exitY=1;exitDx=0;exitDy=-5;exitPerimeter=0;" parent="1" source="AKKE08FFjBf_-YG7INTh-24" edge="1">
          <mxGeometry relative="1" as="geometry">
            <mxPoint x="286" y="435" as="sourcePoint" />
            <mxPoint x="144" y="435" as="targetPoint" />
          </mxGeometry>
        </mxCell>
        <mxCell id="AKKE08FFjBf_-YG7INTh-29" value="Locate(&quot;gem&quot;)" style="html=1;verticalAlign=bottom;endArrow=block;curved=0;rounded=0;" parent="1" target="AKKE08FFjBf_-YG7INTh-28" edge="1">
          <mxGeometry width="80" relative="1" as="geometry">
            <mxPoint x="144" y="460" as="sourcePoint" />
            <mxPoint x="390" y="460" as="targetPoint" />
          </mxGeometry>
        </mxCell>
        <mxCell id="AKKE08FFjBf_-YG7INTh-30" value="return &quot;gem&quot;" style="html=1;verticalAlign=bottom;endArrow=open;dashed=1;endSize=8;curved=0;rounded=0;exitX=0;exitY=1;exitDx=0;exitDy=-5;exitPerimeter=0;" parent="1" source="AKKE08FFjBf_-YG7INTh-28" edge="1">
          <mxGeometry x="-0.0382" relative="1" as="geometry">
            <mxPoint x="406" y="484" as="sourcePoint" />
            <mxPoint x="144" y="484" as="targetPoint" />
            <mxPoint as="offset" />
          </mxGeometry>
        </mxCell>
        <mxCell id="AKKE08FFjBf_-YG7INTh-32" value="FullDescription" style="html=1;verticalAlign=bottom;endArrow=block;curved=0;rounded=0;entryX=0;entryY=0;entryDx=0;entryDy=5;entryPerimeter=0;" parent="1" edge="1">
          <mxGeometry x="0.0081" width="80" relative="1" as="geometry">
            <mxPoint x="144" y="510" as="sourcePoint" />
            <mxPoint x="513" y="510" as="targetPoint" />
            <mxPoint as="offset" />
          </mxGeometry>
        </mxCell>
        <mxCell id="AKKE08FFjBf_-YG7INTh-33" value="return &quot;...&quot;" style="html=1;verticalAlign=bottom;endArrow=open;dashed=1;endSize=8;curved=0;rounded=0;exitX=0;exitY=1;exitDx=0;exitDy=-5;exitPerimeter=0;" parent="1" edge="1">
          <mxGeometry relative="1" as="geometry">
            <mxPoint x="513" y="532" as="sourcePoint" />
            <mxPoint x="144" y="532" as="targetPoint" />
          </mxGeometry>
        </mxCell>
        <mxCell id="AKKE08FFjBf_-YG7INTh-35" value="return &quot;...&quot;" style="html=1;verticalAlign=bottom;endArrow=open;dashed=1;endSize=8;curved=0;rounded=0;exitX=0;exitY=1;exitDx=0;exitDy=-5;exitPerimeter=0;" parent="1" source="AKKE08FFjBf_-YG7INTh-20" edge="1">
          <mxGeometry relative="1" as="geometry">
            <mxPoint x="120" y="560" as="sourcePoint" />
            <mxPoint y="565" as="targetPoint" />
          </mxGeometry>
        </mxCell>
        <mxCell id="-tDefXXr_pi6X9qkGpV6-1" value=":LookCommand" style="shape=umlLifeline;perimeter=lifelinePerimeter;whiteSpace=wrap;html=1;container=1;dropTarget=0;collapsible=0;recursiveResize=0;outlineConnect=0;portConstraint=eastwest;newEdgeStyle={&quot;curved&quot;:0,&quot;rounded&quot;:0};" parent="1" vertex="1">
          <mxGeometry x="721" y="280" width="100" height="290" as="geometry" />
        </mxCell>
        <mxCell id="-tDefXXr_pi6X9qkGpV6-2" value="" style="html=1;points=[[0,0,0,0,5],[0,1,0,0,-5],[1,0,0,0,5],[1,1,0,0,-5]];perimeter=orthogonalPerimeter;outlineConnect=0;targetShapes=umlLifeline;portConstraint=eastwest;newEdgeStyle={&quot;curved&quot;:0,&quot;rounded&quot;:0};" parent="-tDefXXr_pi6X9qkGpV6-1" vertex="1">
          <mxGeometry x="45" y="60" width="10" height="210" as="geometry" />
        </mxCell>
        <mxCell id="-tDefXXr_pi6X9qkGpV6-3" value="" style="html=1;points=[[0,0,0,0,5],[0,1,0,0,-5],[1,0,0,0,5],[1,1,0,0,-5]];perimeter=orthogonalPerimeter;outlineConnect=0;targetShapes=umlLifeline;portConstraint=eastwest;newEdgeStyle={&quot;curved&quot;:0,&quot;rounded&quot;:0};" parent="-tDefXXr_pi6X9qkGpV6-1" vertex="1">
          <mxGeometry x="53" y="81" width="10" height="170" as="geometry" />
        </mxCell>
        <mxCell id="-tDefXXr_pi6X9qkGpV6-4" value="LookAtIn&lt;br&gt;(p,&quot;gem&quot;,&quot;garden&quot;)" style="html=1;verticalAlign=bottom;endArrow=block;curved=0;rounded=0;exitX=1;exitY=0;exitDx=0;exitDy=5;exitPerimeter=0;entryX=1;entryY=0;entryDx=0;entryDy=5;entryPerimeter=0;" parent="-tDefXXr_pi6X9qkGpV6-1" source="-tDefXXr_pi6X9qkGpV6-2" target="-tDefXXr_pi6X9qkGpV6-3" edge="1">
          <mxGeometry x="0.0591" y="32" width="80" relative="1" as="geometry">
            <mxPoint x="79" y="60" as="sourcePoint" />
            <mxPoint x="159" y="60" as="targetPoint" />
            <Array as="points">
              <mxPoint x="89" y="70" />
            </Array>
            <mxPoint x="13" y="-17" as="offset" />
          </mxGeometry>
        </mxCell>
        <mxCell id="-tDefXXr_pi6X9qkGpV6-5" value="return &quot;...&quot;" style="html=1;verticalAlign=bottom;endArrow=open;dashed=1;endSize=8;curved=0;rounded=0;exitX=1;exitY=1;exitDx=0;exitDy=-5;exitPerimeter=0;entryX=1;entryY=1;entryDx=0;entryDy=-5;entryPerimeter=0;" parent="-tDefXXr_pi6X9qkGpV6-1" source="-tDefXXr_pi6X9qkGpV6-3" target="-tDefXXr_pi6X9qkGpV6-2" edge="1">
          <mxGeometry x="-0.0511" y="5" relative="1" as="geometry">
            <mxPoint x="442" y="242" as="sourcePoint" />
            <mxPoint x="73" y="242" as="targetPoint" />
            <Array as="points">
              <mxPoint x="109" y="260" />
            </Array>
            <mxPoint as="offset" />
          </mxGeometry>
        </mxCell>
        <mxCell id="-tDefXXr_pi6X9qkGpV6-6" value=":Location" style="shape=umlLifeline;perimeter=lifelinePerimeter;whiteSpace=wrap;html=1;container=1;dropTarget=0;collapsible=0;recursiveResize=0;outlineConnect=0;portConstraint=eastwest;newEdgeStyle={&quot;curved&quot;:0,&quot;rounded&quot;:0};" parent="1" vertex="1">
          <mxGeometry x="859" y="280" width="100" height="290" as="geometry" />
        </mxCell>
        <mxCell id="-tDefXXr_pi6X9qkGpV6-7" value="" style="html=1;points=[[0,0,0,0,5],[0,1,0,0,-5],[1,0,0,0,5],[1,1,0,0,-5]];perimeter=orthogonalPerimeter;outlineConnect=0;targetShapes=umlLifeline;portConstraint=eastwest;newEdgeStyle={&quot;curved&quot;:0,&quot;rounded&quot;:0};" parent="-tDefXXr_pi6X9qkGpV6-6" vertex="1">
          <mxGeometry x="45" y="149" width="10" height="40" as="geometry" />
        </mxCell>
        <mxCell id="-tDefXXr_pi6X9qkGpV6-8" value=":Item" style="shape=umlLifeline;perimeter=lifelinePerimeter;whiteSpace=wrap;html=1;container=1;dropTarget=0;collapsible=0;recursiveResize=0;outlineConnect=0;portConstraint=eastwest;newEdgeStyle={&quot;curved&quot;:0,&quot;rounded&quot;:0};" parent="1" vertex="1">
          <mxGeometry x="989" y="280" width="100" height="290" as="geometry" />
        </mxCell>
        <mxCell id="-tDefXXr_pi6X9qkGpV6-9" value="" style="html=1;points=[[0,0,0,0,5],[0,1,0,0,-5],[1,0,0,0,5],[1,1,0,0,-5]];perimeter=orthogonalPerimeter;outlineConnect=0;targetShapes=umlLifeline;portConstraint=eastwest;newEdgeStyle={&quot;curved&quot;:0,&quot;rounded&quot;:0};" parent="-tDefXXr_pi6X9qkGpV6-8" vertex="1">
          <mxGeometry x="45" y="200" width="10" height="40" as="geometry" />
        </mxCell>
        <mxCell id="-tDefXXr_pi6X9qkGpV6-10" value="Execute&lt;br&gt;(p, [&quot;look&quot;,&quot;at&quot;, &lt;br&gt;&quot;gem&quot;])" style="html=1;verticalAlign=bottom;endArrow=block;curved=0;rounded=0;entryX=0;entryY=0;entryDx=0;entryDy=5;entryPerimeter=0;" parent="1" target="-tDefXXr_pi6X9qkGpV6-2" edge="1">
          <mxGeometry x="-0.7059" width="80" relative="1" as="geometry">
            <mxPoint x="630" y="345" as="sourcePoint" />
            <mxPoint x="710" y="350" as="targetPoint" />
            <mxPoint as="offset" />
          </mxGeometry>
        </mxCell>
        <mxCell id="-tDefXXr_pi6X9qkGpV6-11" value="Locate(&quot;gem&quot;)" style="html=1;verticalAlign=bottom;endArrow=block;curved=0;rounded=0;" parent="1" target="-tDefXXr_pi6X9qkGpV6-7" edge="1">
          <mxGeometry width="80" relative="1" as="geometry">
            <mxPoint x="784" y="440" as="sourcePoint" />
            <mxPoint x="1030" y="440" as="targetPoint" />
          </mxGeometry>
        </mxCell>
        <mxCell id="-tDefXXr_pi6X9qkGpV6-12" value="return &quot;gem&quot;" style="html=1;verticalAlign=bottom;endArrow=open;dashed=1;endSize=8;curved=0;rounded=0;exitX=0;exitY=1;exitDx=0;exitDy=-5;exitPerimeter=0;" parent="1" source="-tDefXXr_pi6X9qkGpV6-7" edge="1">
          <mxGeometry x="-0.0382" relative="1" as="geometry">
            <mxPoint x="1046" y="464" as="sourcePoint" />
            <mxPoint x="784" y="464" as="targetPoint" />
            <mxPoint as="offset" />
          </mxGeometry>
        </mxCell>
        <mxCell id="-tDefXXr_pi6X9qkGpV6-13" value="FullDescription" style="html=1;verticalAlign=bottom;endArrow=block;curved=0;rounded=0;" parent="1" target="-tDefXXr_pi6X9qkGpV6-9" edge="1">
          <mxGeometry x="0.408" width="80" relative="1" as="geometry">
            <mxPoint x="784" y="490" as="sourcePoint" />
            <mxPoint x="1153" y="490" as="targetPoint" />
            <mxPoint as="offset" />
          </mxGeometry>
        </mxCell>
        <mxCell id="-tDefXXr_pi6X9qkGpV6-14" value="return &quot;...&quot;" style="html=1;verticalAlign=bottom;endArrow=open;dashed=1;endSize=8;curved=0;rounded=0;" parent="1" source="-tDefXXr_pi6X9qkGpV6-9" edge="1">
          <mxGeometry x="0.472" relative="1" as="geometry">
            <mxPoint x="1153" y="512" as="sourcePoint" />
            <mxPoint x="784" y="512" as="targetPoint" />
            <mxPoint as="offset" />
          </mxGeometry>
        </mxCell>
        <mxCell id="-tDefXXr_pi6X9qkGpV6-15" value="return &quot;...&quot;" style="html=1;verticalAlign=bottom;endArrow=open;dashed=1;endSize=8;curved=0;rounded=0;exitX=0;exitY=1;exitDx=0;exitDy=-5;exitPerimeter=0;" parent="1" source="-tDefXXr_pi6X9qkGpV6-2" edge="1">
          <mxGeometry relative="1" as="geometry">
            <mxPoint x="760" y="540" as="sourcePoint" />
            <mxPoint x="640" y="545" as="targetPoint" />
          </mxGeometry>
        </mxCell>
      </root>
    </mxGraphModel>
  </diagram>
</mxfile>
